<?xml version="1.0" encoding="utf-8"?>
<!-- Generator: Adobe Illustrator 16.0.0, SVG Export Plug-In . SVG Version: 6.00 Build 0)  -->
<!DOCTYPE svg PUBLIC "-//W3C//DTD SVG 1.1//EN" "http://www.w3.org/Graphics/SVG/1.1/DTD/svg11.dtd">
<svg version="1.1" id="Layer_1" xmlns="http://www.w3.org/2000/svg" xmlns:xlink="http://www.w3.org/1999/xlink" x="0px" y="0px"
	 width="298.871px" height="66.875px" viewBox="0 0 298.871 66.875" enable-background="new 0 0 298.871 66.875"
	 xml:space="preserve">
<path fill-rule="evenodd" clip-rule="evenodd" fill="#FFFFFF" d="M0,66.875C0,44.583,0,22.292,0,0c99.624,0,199.247,0,298.871,0
	c0,22.292,0,44.583,0,66.875C199.247,66.875,99.624,66.875,0,66.875z M115.231,5.873c-0.21,0.07-0.496,0.151-0.76,0.276
	c-0.023,0.011,0.053,0.331,0.141,0.47c1.358,2.154,2.686,4.329,4.103,6.442c1.126,1.679,2.395,3.262,3.535,4.932
	c0.295,0.432,0.262,1.08,0.528,1.542c1.087,1.892,2.216,3.76,3.36,5.617c1.02,1.655,2.105,3.269,3.095,4.941
	c0.16,0.269,0.097,0.821-0.078,1.112c-0.715,1.193-1.542,2.318-2.274,3.501c-1.832,2.957-3.615,5.944-5.454,8.896
	c-2.374,3.81-4.807,7.582-7.168,11.399c-1.089,1.761-2.076,3.586-3.084,5.396c-0.103,0.185-0.031,0.467-0.04,0.704
	c0.265-0.014,0.633,0.08,0.776-0.06c0.672-0.658,1.089-0.246,1.403,0.321c0.295,0.533,0.678,0.57,1.173,0.421
	c0.648-0.195,1.207-0.107,1.699,0.424c0.11,0.119,0.537,0.114,0.683-0.003c0.703-0.561,2.536-0.654,3.271,0.075
	c0.876,0.871,2.07,0.187,3.045,0.606c0.086,0.036,0.235-0.095,0.36-0.125c0.123-0.029,0.292-0.089,0.374-0.033
	c0.979,0.652,1.243-0.188,1.61-0.775c1.47-2.352,2.924-4.715,4.396-7.065c1.238-1.978,2.482-3.953,3.747-5.914
	c1.038-1.608,2.081-3.217,3.182-4.781c0.498-0.706,0.742-0.663,1.219,0.091c1.25,1.975,2.476,3.965,3.708,5.95
	c1.507,2.427,3.013,4.854,4.516,7.283c0.817,1.323,1.607,2.663,2.444,3.974c0.445,0.697,0.928,1.377,1.457,2.013
	c0.399,0.48,0.938,0.497,1.34,0.001c0.36-0.446,0.688-0.497,1.203-0.276c0.773,0.33,1.542,0.639,2.425,0.106
	c0.345-0.208,0.934,0.019,1.409-0.007c0.356-0.019,0.776-0.022,1.05-0.208c0.847-0.576,2.475-0.641,3.35-0.126
	c0.29,0.171,0.76,0.27,1.049,0.153c0.48-0.194,0.869-0.375,1.376-0.063c0.139,0.085,0.465-0.084,0.679-0.189
	c0.175-0.087,0.298-0.344,0.466-0.367c0.913-0.125,0.578-0.525,0.273-0.992c-0.78-1.193-1.55-2.395-2.294-3.61
	c-1.248-2.032-2.457-4.088-3.711-6.114c-1.461-2.359-2.964-4.69-4.427-7.048c-1.271-2.049-2.501-4.124-3.766-6.177
	c-1.605-2.604-3.247-5.188-4.818-7.813c-0.189-0.315-0.207-0.938-0.021-1.243c1.387-2.28,2.877-4.496,4.273-6.771
	c1.338-2.181,2.574-4.423,3.904-6.607c0.766-1.256,1.64-2.444,2.447-3.674c1.094-1.668,2.173-3.346,3.254-5.022
	c0.491-0.762,0.982-1.524,1.448-2.302c0.492-0.82,0.275-1.207-0.652-1.243c-0.879-0.035-1.769-0.199-2.634-0.108
	c-1.214,0.128-2.399,0.2-3.609-0.039c-0.309-0.061-0.738,0.101-1.008,0.301c-0.714,0.53-1.497,0.638-2.348,0.647
	c-0.558,0.006-1.154,0.06-1.662,0.268c-0.666,0.272-1.186,0.302-1.798-0.153c-0.729-0.542-1.458-0.382-1.876,0.289
	c-2.32,3.725-4.64,7.45-6.95,11.18c-0.588,0.95-1.144,0.983-1.769,0.012c-0.729-1.132-1.389-2.309-2.102-3.451
	c-1.907-3.058-3.811-6.119-5.765-9.146c-0.227-0.352-0.747-0.666-1.162-0.71c-0.787-0.085-1.605-0.025-2.396,0.087
	c-1.424,0.202-2.843,0.46-4.251,0.757c-0.307,0.064-0.573,0.372-0.837,0.593c-0.249,0.208-0.45,0.608-0.711,0.645
	c-0.813,0.116-1.533,0.345-2.217,0.83c-0.288,0.204-0.79,0.135-1.193,0.134C115.887,6.043,115.609,5.946,115.231,5.873z
	 M9.292,43.957c-0.002,0.083-0.003,0.167-0.005,0.25c0.252,0.044,0.505,0.126,0.757,0.126c4.304,0.008,8.608,0.037,12.912-0.004
	c3.061-0.03,6.027-0.563,8.761-2.049c3.063-1.664,5.038-4.247,6.205-7.486c0.817-2.268,0.933-4.637,0.779-7.015
	c-0.216-3.345-1.402-6.32-3.601-8.856c-2.282-2.631-5.347-3.85-8.659-4.029c-5.534-0.299-11.087-0.242-16.632-0.325
	c-0.162-0.002-0.326,0.114-0.489,0.175c0.011,0.074,0.022,0.147,0.033,0.221c0.268,0.019,0.536,0.031,0.803,0.056
	c1.281,0.122,2.443,0.494,2.837,1.888c0.201,0.712,0.25,1.487,0.252,2.234c0.022,5.234,0.016,10.469,0.014,15.703
	c0,1.953,0.024,3.907-0.031,5.858c-0.058,2.045-1.079,3.023-3.102,3.113C9.847,43.831,9.57,43.909,9.292,43.957z M160.9,45.243
	c0.003,0.062,0.006,0.123,0.009,0.185c0.22,0.016,0.439,0.046,0.659,0.045c3.653-0.012,7.308,0.001,10.961-0.054
	c2.281-0.034,4.532-0.322,6.729-1.023c4.037-1.287,6.715-4.022,7.97-7.976c1.415-4.457,1.166-8.884-1.267-13.023
	c-1.188-2.025-2.835-3.588-4.992-4.514c-2.241-0.961-4.641-1.307-7.05-1.371c-4.117-0.109-8.237-0.087-12.357-0.111
	c-0.247-0.001-0.495,0.076-0.743,0.118c0.005,0.083,0.01,0.167,0.015,0.25c0.262,0.028,0.521,0.068,0.783,0.08
	c1.43,0.067,2.261,0.687,2.603,2.087c0.17,0.698,0.248,1.436,0.251,2.157c0.019,5.959,0.012,11.919,0.009,17.878
	c0,0.625,0.002,1.251-0.035,1.873c-0.083,1.394-0.589,2.538-1.995,3.047C161.954,45.069,161.417,45.13,160.9,45.243z
	 M285.693,45.374c-0.797-0.847-1.638-1.646-2.367-2.538c-0.85-1.041-1.607-2.158-2.397-3.249c-0.427-0.59-0.246-1.136,0.442-1.409
	c1.074-0.428,1.981-1.033,2.25-2.264c0.577-2.64-1.175-4.139-3.524-4.315c-1.573-0.118-3.16-0.036-4.741-0.028
	c-0.205,0.001-0.409,0.091-0.505,0.115c0.186,0.725,0.493,1.341,0.478,1.949c-0.1,3.876,0.423,7.778-0.376,11.707
	c0.792,0,1.63,0,2.392,0c-0.689-2.323-0.852-4.548-0.015-6.876c-0.102-0.186-0.438-0.522-0.451-0.872
	c-0.059-1.532-0.048-3.069,0-4.603c0.009-0.276,0.261-0.711,0.49-0.785c1.034-0.328,2.106-0.417,3.056,0.255
	c1.979,1.403,1.932,4.012-0.123,5.318c-0.609,0.387-1.354,0.557-2.062,0.836c0.233,0.203,0.529,0.38,0.718,0.636
	c1.169,1.585,2.35,3.161,3.454,4.791C283.367,45.456,283.993,45.754,285.693,45.374z M104.302,44.317
	c0.082-0.011,0.164-0.021,0.246-0.031c0.049-0.231,0.139-0.463,0.14-0.695c0.007-3.462-0.006-6.925,0.005-10.387
	c0.004-1.193-0.272-2.458,0.938-3.506c-0.905,0-1.596,0-2.304,0c0.264,0.513,0.665,0.936,0.675,1.368
	c0.072,2.914,0.081,5.829,0.062,8.744c-0.004,0.618-0.423,0.771-0.884,0.356c-0.34-0.306-0.591-0.712-0.885-1.07
	c-2.348-2.871-4.697-5.741-7.047-8.61c-0.773-0.943-2.087-1.219-3.237-0.684c0.005,0.024,0.002,0.061,0.017,0.071
	c0.107,0.07,0.216,0.136,0.326,0.201c0.95,0.557,1.565,1.263,1.541,2.489c-0.063,3.096-0.009,6.194-0.067,9.29
	c-0.011,0.617-0.331,1.224-0.46,1.846c-0.038,0.187,0.069,0.577,0.141,0.585c0.483,0.053,0.975,0.027,1.286,0.027
	c-0.131-1.036-0.316-1.881-0.331-2.729c-0.045-2.446-0.039-4.895-0.007-7.341c0.005-0.401,0.241-0.8,0.37-1.2
	c0.321,0.225,0.714,0.392,0.953,0.685c1.884,2.313,3.737,4.65,5.603,6.978C102.351,41.91,103.329,43.112,104.302,44.317z
	 M82.445,29.729c-0.739-0.271-1.405-0.202-2.091,0.105c-2.148,0.963-3.554,2.633-4.253,4.809c-0.899,2.795-0.525,5.429,1.483,7.719
	c2.445,2.789,7.366,2.854,10.331,1.505c0.663-0.303,0.847-0.704,0.85-1.448c0.007-1.964-0.451-3.999,0.701-5.861
	c-1.074,0-2.081,0-3.025,0c0.229,0.752,0.562,1.425,0.622,2.123c0.106,1.214,0.084,2.444,0.031,3.665
	c-0.018,0.403-0.194,1.005-0.481,1.153c-0.854,0.439-1.781,0.79-2.719,0.999c-0.868,0.193-1.616-0.351-2.397-0.706
	c-1.522-0.691-2.471-1.891-3.063-3.362c-0.88-2.187-1.02-4.422-0.194-6.695c0.68-1.872,1.799-3.241,3.773-3.786
	C82.163,29.907,82.3,29.804,82.445,29.729z M64.661,29.727c-0.851,0.55-1.508,0.286-2.277,0c-1.35-0.501-2.857-0.65-4.172,0.012
	c-2.63,1.325-2.827,4.694-0.403,6.393c1.414,0.991,2.932,1.834,4.417,2.721c1.261,0.752,2.042,2.126,1.85,3.173
	c-0.274,1.48-3.049,2.864-4.476,2.089c-1.329-0.722-2.511-1.396-2.971-2.925c-0.009-0.03-0.086-0.04-0.298-0.132
	c0,0.979-0.012,1.893,0.021,2.804c0.003,0.082,0.291,0.203,0.455,0.22c0.411,0.041,0.842-0.037,1.238,0.054
	c1.678,0.387,3.296,0.953,5.074,0.244c2.289-0.911,3.355-3.786,1.807-5.694c-0.786-0.969-1.975-1.627-3.034-2.349
	c-1.088-0.741-2.292-1.315-3.349-2.095c-1.42-1.048-1.473-2.351-0.282-3.574c1.367-1.403,4.398-0.856,5.475,0.982
	c0.254,0.435,0.532,0.857,0.924,1.487C64.661,31.899,64.661,30.906,64.661,29.727z M109.098,43.896
	c0.896,0.14,1.655,0.188,2.373,0.386c1.486,0.41,2.926,0.755,4.456,0.089c1.447-0.629,2.294-1.701,2.524-3.201
	c0.203-1.319-0.327-2.485-1.34-3.32c-0.732-0.604-1.611-1.025-2.414-1.545c-1.254-0.813-2.583-1.538-3.726-2.489
	c-1.073-0.894-0.954-2.149,0.06-3.123c1.629-1.565,4.986-0.736,5.814,1.434c0.093,0.245,0.203,0.483,0.305,0.725
	c0.067-0.017,0.135-0.034,0.202-0.051c0-0.989,0-1.978,0-3.273c-0.811,0.924-1.384,0.405-2.054,0.222
	c-1.707-0.465-3.447-0.783-5.018,0.511c-1.384,1.141-1.756,2.88-0.921,4.48c0.719,1.379,2.083,1.959,3.297,2.729
	c1.09,0.691,2.226,1.319,3.259,2.088c1.011,0.753,1.327,2.073,0.792,2.986c-0.626,1.069-1.614,1.737-2.831,1.793
	c-1.499,0.069-2.732-0.668-3.713-1.765c-0.417-0.466-0.693-1.059-1.064-1.644C109.098,42.014,109.098,43.02,109.098,43.896z
	 M234.153,45.352c-0.126-0.861-0.324-1.66-0.344-2.463c-0.057-2.315-0.057-4.632-0.035-6.948c0.003-0.4,0.218-0.799,0.335-1.198
	c0.325,0.221,0.649,0.441,0.974,0.664c0.021,0.014,0.034,0.038,0.051,0.059c2.123,2.65,4.249,5.302,6.37,7.954
	c0.492,0.615,0.971,1.239,1.612,2.059c0.104-0.501,0.203-0.756,0.204-1.01c0.002-3.096-0.019-6.191-0.013-9.287
	c0.002-1.152-0.231-2.352,0.759-3.497c-0.713,0-1.217,0-1.603,0c0.111,0.826,0.262,1.527,0.288,2.233
	c0.054,1.482,0.044,2.966,0.056,4.45c0.006,0.857,0.03,1.717-0.016,2.572c-0.013,0.242-0.242,0.473-0.371,0.71
	c-0.208-0.12-0.465-0.195-0.615-0.366c-0.494-0.564-0.949-1.165-1.421-1.75c-2.002-2.483-3.998-4.97-6.006-7.447
	c-0.532-0.655-1.948-0.771-2.617-0.171c1.513,0.575,1.567,1.792,1.506,3.146c-0.085,1.845,0,3.696-0.055,5.543
	c-0.047,1.561,0.353,3.176-0.639,4.748C233.244,45.352,233.76,45.352,234.153,45.352z M52.504,31.746
	c0.515-1.461,0.032-2.191-1.35-2.182c-2.591,0.018-5.182,0.025-7.772,0.046c-0.21,0.002-0.42,0.073-0.866,0.156
	c1.232,0.928,1.01,2.093,1.014,3.196c0.009,2.629,0.025,5.258-0.001,7.887c-0.012,1.113,0.279,2.309-0.931,3.348
	c0.589,0.07,0.925,0.143,1.261,0.145c2.436,0.017,4.873,0.004,7.308,0.033c1.361,0.017,2.283-1.044,2.087-2.314
	c-0.671,0.518-1.335,1.424-2.127,1.557c-1.639,0.273-3.345,0.154-5.023,0.155c-0.501,0-0.822-0.35-0.838-0.861
	c-0.052-1.689-0.099-3.38-0.102-5.071c-0.001-0.633,0.357-1.004,1.041-0.993c0.777,0.012,1.558,0.036,2.332-0.013
	c0.888-0.057,1.622,0.226,2.261,0.82c0.118,0.11,0.254,0.201,0.439,0.346c0-0.911,0-1.718,0-2.493
	c-0.628,0.287-1.18,0.705-1.774,0.776c-1.125,0.136-2.275,0.086-3.415,0.086c-0.495,0.001-0.887-0.235-0.888-0.779
	c-0.004-1.508,0.02-3.017,0.06-4.525c0.018-0.69,0.407-1.026,1.107-1.017c0.985,0.013,1.971,0.023,2.955-0.005
	C50.662,30.003,51.846,30.322,52.504,31.746z M247.878,31.728c0.153,0.534,0.439,1.049,0.427,1.556
	c-0.102,4.025,0.417,8.073-0.323,12.065c0.759,0,1.615,0,2.26,0c-0.125-1.021-0.251-1.975-0.359-2.929
	c-0.199-1.751,0.296-3.488,0.031-5.261c-0.187-1.248-0.038-2.546-0.04-3.822c-0.001-0.672,0.217-1.166,0.967-1.275
	c1.249-0.182,2.346,0.094,3.095,1.167c0.73,1.048,1.142,2.252,0.503,3.447c-0.427,0.798-1.166,1.426-1.786,2.154
	c0.127,0.021,0.387,0.1,0.646,0.098c1.413-0.009,2.842-1.201,3.197-2.645c0.386-1.565-0.332-3.318-1.673-4.021
	c-2.224-1.165-4.591-0.664-6.921-0.569C247.886,31.695,247.872,31.736,247.878,31.728z M192.92,45.389
	c0-0.764-0.087-1.409,0.025-2.017c0.105-0.573,0.39-1.124,0.655-1.654c0.338-0.676,0.751-1.149,1.686-1.043
	c1.124,0.129,2.278,0.071,3.414-0.004c0.808-0.054,1.293,0.236,1.542,0.981c0.397,1.182,1.253,2.28,0.442,3.702
	c1.187,0,2.159,0,3.007,0c-0.598-1.226-1.223-2.403-1.758-3.621c-0.865-1.97-1.683-3.961-2.498-5.952
	c-0.502-1.224-0.951-2.47-1.455-3.693c-0.074-0.182-0.296-0.345-0.487-0.417c-0.083-0.032-0.324,0.16-0.386,0.298
	c-0.512,1.154-1.013,2.314-1.491,3.483c-0.529,1.292-0.989,2.613-1.555,3.888c-0.905,2.038-1.873,4.049-2.805,6.049
	C191.736,45.389,192.365,45.389,192.92,45.389z M227.533,37.042c-0.543,0.271-0.981,0.647-1.452,0.693
	c-1.129,0.109-2.273,0.101-3.41,0.064c-0.563-0.018-0.853-0.393-0.841-1.004c0.024-1.196,0.001-2.394,0.012-3.59
	c0.008-0.97,0.419-1.327,1.411-1.286c0.568,0.023,1.137,0.012,1.706,0.026c1.225,0.03,2.512-0.165,3.444,0.947
	c0.074,0.087,0.204,0.128,0.326,0.202c0.176-1.151-0.104-1.568-1.037-1.566c-2.357,0.005-4.714,0.018-7.069,0.043
	c-0.278,0.003-0.556,0.104-1.038,0.2c0.947,0.82,0.84,1.754,0.841,2.659c0.004,1.926,0.053,3.853-0.014,5.775
	c-0.061,1.706,0.44,3.491-0.805,5.218c0.76,0,1.313-0.003,1.868,0.001c2.099,0.013,4.195,0.042,6.294,0.035
	c1.1-0.004,1.681-0.907,1.165-1.813c-0.104,0.069-0.229,0.119-0.309,0.209c-0.782,0.891-1.749,1.339-2.943,1.3
	c-0.724-0.023-1.45,0.004-2.176-0.011c-0.983-0.02-1.62-0.602-1.646-1.577c-0.036-1.403-0.021-2.81-0.016-4.214
	c0.002-0.63,0.338-1.133,0.936-1.156c1.048-0.043,2.115-0.004,3.147,0.166c0.539,0.089,1.021,0.528,1.604,0.851
	C227.533,38.445,227.533,37.76,227.533,37.042z M203.923,31.647c0.457,0.838,0.911,1.577,1.275,2.359
	c0.513,1.103,0.958,2.238,1.433,3.358c1.051,2.48,2.098,4.961,3.16,7.436c0.091,0.212,0.291,0.377,0.44,0.564
	c0.186-0.197,0.432-0.364,0.543-0.597c0.201-0.417,0.302-0.882,0.479-1.313c0.76-1.857,1.528-3.711,2.3-5.564
	c0.683-1.64,1.349-3.288,2.071-4.91c0.199-0.445,0.576-0.811,0.943-1.311c-0.849,0-1.577,0-2.252,0
	c0.19,0.536,0.507,0.993,0.463,1.413c-0.064,0.627-0.361,1.236-0.6,1.837c-0.586,1.482-1.206,2.953-1.793,4.436
	c-0.286,0.72-0.475,1.483-0.817,2.172c-0.164,0.326-0.585,0.522-0.889,0.778c-0.181-0.26-0.41-0.496-0.532-0.78
	c-0.968-2.236-1.899-4.487-2.874-6.721c-0.438-1.002-1.003-1.969-0.076-3.157C205.978,31.647,204.925,31.647,203.923,31.647z
	 M293.273,45.382c-0.181-0.683-0.453-1.253-0.46-1.828c-0.045-3.462-0.037-6.926-0.025-10.389c0.003-0.837,0.294-1.084,1.15-1.13
	c1.346-0.072,2.653-0.034,3.507,1.378c0.438-1.466,0.144-1.88-1.127-1.878c-2.903,0.006-5.808-0.001-8.711,0.002
	c-1.173,0.001-1.495,0.575-0.9,1.89c0.657-1.478,1.906-1.41,3.142-1.392c1.19,0.017,1.39,0.214,1.39,1.428
	c0,2.526,0.023,5.052-0.019,7.578c-0.023,1.448,0.353,2.962-0.707,4.341C291.526,45.382,292.391,45.382,293.273,45.382z
	 M72.368,44.226c0.062-0.071,0.123-0.143,0.185-0.213c-1.14-0.566-0.869-1.552-0.875-2.433c-0.02-2.913-0.012-5.826-0.005-8.739
	c0.003-1.073-0.206-2.206,0.744-3.129c-1.106,0-2.212,0-3.318,0c0.759,0.541,0.817,1.255,0.822,2.007
	c0.02,3.198,0.058,6.397,0.066,9.595c0.002,0.971,0.118,1.985-0.895,2.911C70.352,44.226,71.359,44.226,72.368,44.226z
	 M264.497,45.446c-2.41-1.125-3.527-2.224-3.772-4.188c-0.211-1.685-0.153-3.412-0.11-5.117c0.037-1.552,0.878-2.744,2.007-3.734
	c0.287-0.251,0.644-0.424,1.092-0.713c-1.151-0.332-1.799,0.356-2.441,0.826c-3.846,2.807-3.76,9.544,0.352,12.243
	C262.417,45.283,263.296,45.834,264.497,45.446z M266.575,31.39c-0.04,0.103-0.08,0.207-0.121,0.31
	c0.16,0.111,0.31,0.242,0.481,0.33c0.979,0.501,1.678,1.232,2.13,2.261c0.862,1.961,0.771,3.997,0.642,6.056
	c-0.087,1.405-0.491,2.683-1.546,3.625c-0.67,0.598-1.494,1.021-2.4,1.625c0.594-0.077,1.137-0.024,1.562-0.223
	c2.441-1.138,3.977-2.969,4.283-5.751c0.362-3.285-0.556-5.967-3.481-7.727C267.669,31.624,267.095,31.554,266.575,31.39z
	 M88.401,29.943c-1.181,0.326-1.187,0.292-2.317-0.168c-0.423-0.173-0.92-0.161-1.383-0.234c0.699,0.516,1.459,0.794,2.05,1.28
	c0.61,0.502,1.055,1.207,1.573,1.823c0.066-0.001,0.132-0.003,0.198-0.004C88.483,31.771,88.444,30.902,88.401,29.943z"/>
<path fill-rule="evenodd" clip-rule="evenodd" fill="#5C5C5C" d="M115.231,5.873c0.378,0.074,0.656,0.171,0.936,0.171
	c0.404,0.001,0.905,0.07,1.193-0.134c0.684-0.485,1.404-0.714,2.217-0.83c0.261-0.037,0.462-0.437,0.711-0.645
	c0.265-0.221,0.53-0.528,0.837-0.593c1.409-0.296,2.827-0.555,4.251-0.757c0.791-0.112,1.608-0.172,2.396-0.087
	c0.416,0.045,0.935,0.358,1.162,0.71c1.955,3.028,3.858,6.088,5.765,9.146c0.713,1.143,1.373,2.319,2.102,3.451
	c0.625,0.972,1.181,0.938,1.769-0.012c2.311-3.73,4.63-7.455,6.95-11.18c0.418-0.671,1.147-0.832,1.876-0.289
	c0.613,0.456,1.132,0.425,1.798,0.153c0.508-0.208,1.104-0.262,1.662-0.268c0.851-0.009,1.634-0.118,2.348-0.647
	c0.27-0.201,0.699-0.362,1.008-0.301c1.21,0.239,2.396,0.167,3.609,0.039c0.865-0.091,1.755,0.073,2.634,0.108
	c0.928,0.037,1.145,0.423,0.652,1.243c-0.466,0.778-0.957,1.54-1.448,2.302c-1.081,1.677-2.16,3.354-3.254,5.022
	c-0.808,1.23-1.682,2.418-2.447,3.674c-1.33,2.185-2.566,4.427-3.904,6.607c-1.396,2.275-2.886,4.491-4.273,6.771
	c-0.187,0.306-0.169,0.928,0.021,1.243c1.571,2.625,3.212,5.209,4.818,7.813c1.265,2.053,2.495,4.128,3.766,6.177
	c1.463,2.357,2.966,4.688,4.427,7.048c1.254,2.026,2.463,4.082,3.711,6.114c0.744,1.216,1.514,2.417,2.294,3.61
	c0.305,0.467,0.64,0.867-0.273,0.992c-0.168,0.023-0.291,0.28-0.466,0.367c-0.214,0.105-0.54,0.274-0.679,0.189
	c-0.507-0.312-0.896-0.131-1.376,0.063c-0.289,0.116-0.759,0.018-1.049-0.153c-0.875-0.515-2.503-0.45-3.35,0.126
	c-0.273,0.186-0.693,0.189-1.05,0.208c-0.476,0.025-1.064-0.201-1.409,0.007c-0.883,0.532-1.651,0.224-2.425-0.106
	c-0.515-0.221-0.843-0.17-1.203,0.276c-0.402,0.496-0.941,0.479-1.34-0.001c-0.529-0.636-1.012-1.315-1.457-2.013
	c-0.836-1.311-1.626-2.65-2.444-3.974c-1.502-2.43-3.009-4.856-4.516-7.283c-1.233-1.985-2.458-3.976-3.708-5.95
	c-0.478-0.754-0.722-0.797-1.219-0.091c-1.102,1.564-2.144,3.173-3.182,4.781c-1.265,1.961-2.508,3.937-3.747,5.914
	c-1.472,2.351-2.926,4.714-4.396,7.065c-0.367,0.587-0.63,1.428-1.61,0.775c-0.082-0.056-0.251,0.004-0.374,0.033
	c-0.125,0.03-0.274,0.161-0.36,0.125c-0.975-0.42-2.169,0.265-3.045-0.606c-0.735-0.729-2.567-0.636-3.271-0.075
	c-0.146,0.117-0.573,0.122-0.683,0.003c-0.492-0.531-1.051-0.619-1.699-0.424c-0.496,0.149-0.878,0.112-1.173-0.421
	c-0.313-0.567-0.73-0.979-1.403-0.321c-0.143,0.14-0.511,0.046-0.776,0.06c0.009-0.237-0.063-0.52,0.04-0.704
	c1.008-1.81,1.996-3.635,3.084-5.396c2.362-3.817,4.794-7.59,7.168-11.399c1.839-2.952,3.622-5.939,5.454-8.896
	c0.733-1.183,1.559-2.308,2.274-3.501c0.175-0.292,0.237-0.843,0.078-1.112c-0.99-1.672-2.076-3.286-3.095-4.941
	c-1.144-1.857-2.272-3.726-3.36-5.617c-0.266-0.463-0.233-1.111-0.528-1.542c-1.141-1.669-2.409-3.252-3.535-4.932
	c-1.417-2.114-2.745-4.288-4.103-6.442c-0.088-0.139-0.164-0.459-0.141-0.47C114.735,6.023,115.021,5.942,115.231,5.873z"/>
<path fill-rule="evenodd" clip-rule="evenodd" d="M9.292,43.957c0.278-0.048,0.555-0.126,0.835-0.139
	c2.023-0.09,3.044-1.068,3.102-3.113c0.056-1.951,0.031-3.905,0.031-5.858c0.002-5.234,0.008-10.469-0.014-15.703
	c-0.003-0.747-0.052-1.521-0.252-2.234c-0.394-1.394-1.556-1.766-2.837-1.888c-0.267-0.025-0.536-0.038-0.803-0.056
	c-0.011-0.074-0.022-0.147-0.033-0.221c0.163-0.061,0.327-0.177,0.489-0.175c5.545,0.083,11.099,0.025,16.632,0.325
	c3.312,0.179,6.376,1.398,8.659,4.029c2.199,2.536,3.384,5.511,3.601,8.856c0.154,2.377,0.038,4.747-0.779,7.015
	c-1.167,3.239-3.143,5.822-6.205,7.486c-2.734,1.485-5.7,2.019-8.761,2.049c-4.304,0.041-8.608,0.012-12.912,0.004
	c-0.252,0-0.505-0.082-0.757-0.126C9.288,44.124,9.29,44.04,9.292,43.957z M17.099,29.521c0.002,0,0.004,0,0.006,0
	c0,3.931-0.001,7.862,0,11.794c0,1.09,0.163,1.379,1.213,1.547c3.321,0.533,6.607,0.657,9.651-1.176
	c2.691-1.622,4.459-3.973,5.448-6.939c0.703-2.11,0.758-4.289,0.678-6.484c-0.077-2.11-0.535-4.142-1.505-6
	c-2.816-5.392-8.48-7.546-14.41-6.014c-0.839,0.217-1.104,0.635-1.097,1.479C17.118,21.658,17.099,25.589,17.099,29.521z"/>
<path fill-rule="evenodd" clip-rule="evenodd" d="M160.9,45.243c0.517-0.113,1.054-0.174,1.548-0.353
	c1.406-0.509,1.912-1.653,1.995-3.047c0.037-0.622,0.035-1.248,0.035-1.873c0.003-5.959,0.01-11.918-0.009-17.878
	c-0.003-0.721-0.081-1.458-0.251-2.157c-0.342-1.4-1.173-2.02-2.603-2.087c-0.262-0.012-0.521-0.052-0.783-0.08
	c-0.005-0.083-0.01-0.167-0.015-0.25c0.248-0.042,0.496-0.119,0.743-0.118c4.12,0.024,8.24,0.002,12.357,0.111
	c2.409,0.064,4.809,0.41,7.05,1.371c2.157,0.926,3.804,2.488,4.992,4.514c2.433,4.14,2.682,8.566,1.267,13.023
	c-1.255,3.953-3.933,6.688-7.97,7.976c-2.196,0.701-4.447,0.989-6.729,1.023c-3.653,0.055-7.308,0.042-10.961,0.054
	c-0.22,0.001-0.439-0.029-0.659-0.045C160.906,45.366,160.903,45.305,160.9,45.243z M167.895,31.471c0.001,0,0.001,0,0.002,0
	c0,3.281,0,6.561,0,9.841c0,2.717-0.165,2.362,2.288,2.815c6.529,1.207,11.739-2.575,13.156-8.723
	c0.697-3.021,0.655-6.137-0.381-9.169c-0.812-2.37-2.175-4.298-4.22-5.707c-2.868-1.976-6.038-2.319-9.369-1.566
	c-1.438,0.325-1.476,0.395-1.476,1.886C167.893,24.39,167.895,27.931,167.895,31.471z"/>
<path fill-rule="evenodd" clip-rule="evenodd" d="M285.693,45.374c-1.7,0.38-2.326,0.082-3.282-1.332
	c-1.104-1.63-2.285-3.206-3.454-4.791c-0.188-0.256-0.484-0.433-0.718-0.636c0.708-0.279,1.452-0.449,2.062-0.836
	c2.055-1.306,2.103-3.915,0.123-5.318c-0.949-0.672-2.021-0.583-3.056-0.255c-0.229,0.073-0.481,0.509-0.49,0.785
	c-0.048,1.533-0.059,3.07,0,4.603c0.014,0.35,0.35,0.687,0.451,0.872c-0.837,2.328-0.675,4.553,0.015,6.876c-0.762,0-1.6,0-2.392,0
	c0.799-3.929,0.276-7.83,0.376-11.707c0.016-0.608-0.292-1.224-0.478-1.949c0.096-0.023,0.3-0.114,0.505-0.115
	c1.581-0.008,3.168-0.09,4.741,0.028c2.35,0.176,4.102,1.675,3.524,4.315c-0.269,1.23-1.176,1.836-2.25,2.264
	c-0.688,0.273-0.869,0.819-0.442,1.409c0.79,1.091,1.548,2.208,2.397,3.249C284.056,43.728,284.896,44.527,285.693,45.374z"/>
<path fill-rule="evenodd" clip-rule="evenodd" d="M104.302,44.317c-0.973-1.205-1.951-2.407-2.92-3.615
	c-1.866-2.327-3.719-4.665-5.603-6.978c-0.239-0.293-0.631-0.46-0.953-0.685c-0.129,0.4-0.365,0.798-0.37,1.2
	c-0.032,2.446-0.038,4.895,0.007,7.341c0.015,0.849,0.2,1.693,0.331,2.729c-0.312,0-0.803,0.025-1.286-0.027
	c-0.072-0.008-0.179-0.398-0.141-0.585c0.129-0.622,0.45-1.229,0.46-1.846c0.058-3.096,0.004-6.194,0.067-9.29
	c0.024-1.227-0.591-1.932-1.541-2.489c-0.11-0.065-0.219-0.131-0.326-0.201c-0.015-0.01-0.012-0.046-0.017-0.071
	c1.15-0.535,2.464-0.259,3.237,0.684c2.35,2.869,4.699,5.739,7.047,8.61c0.293,0.358,0.544,0.765,0.885,1.07
	c0.46,0.414,0.879,0.262,0.884-0.356c0.019-2.915,0.01-5.83-0.062-8.744c-0.011-0.432-0.411-0.854-0.675-1.368
	c0.708,0,1.398,0,2.304,0c-1.21,1.049-0.935,2.313-0.938,3.506c-0.012,3.462,0.002,6.925-0.005,10.387
	c0,0.232-0.091,0.464-0.14,0.695C104.466,44.297,104.383,44.307,104.302,44.317z"/>
<path fill-rule="evenodd" clip-rule="evenodd" d="M82.445,29.729c-0.145,0.075-0.282,0.177-0.436,0.22
	c-1.974,0.545-3.093,1.914-3.773,3.786c-0.826,2.273-0.686,4.508,0.194,6.695c0.593,1.472,1.541,2.671,3.063,3.362
	c0.782,0.355,1.529,0.899,2.397,0.706c0.938-0.209,1.864-0.56,2.719-0.999c0.288-0.148,0.463-0.75,0.481-1.153
	c0.053-1.221,0.075-2.451-0.031-3.665c-0.061-0.698-0.393-1.371-0.622-2.123c0.945,0,1.951,0,3.025,0
	c-1.152,1.862-0.693,3.897-0.701,5.861c-0.003,0.744-0.187,1.146-0.85,1.448c-2.965,1.35-7.885,1.284-10.331-1.505
	c-2.008-2.29-2.382-4.924-1.483-7.719c0.7-2.176,2.105-3.846,4.253-4.809C81.04,29.527,81.706,29.458,82.445,29.729z"/>
<path fill-rule="evenodd" clip-rule="evenodd" d="M64.661,29.727c0,1.179,0,2.172,0,3.411c-0.393-0.63-0.67-1.052-0.924-1.487
	c-1.076-1.838-4.107-2.385-5.475-0.982c-1.191,1.223-1.138,2.525,0.282,3.574c1.057,0.779,2.261,1.354,3.349,2.095
	c1.059,0.722,2.248,1.38,3.034,2.349c1.548,1.908,0.482,4.783-1.807,5.694c-1.778,0.709-3.396,0.143-5.074-0.244
	c-0.396-0.091-0.827-0.013-1.238-0.054c-0.164-0.017-0.452-0.138-0.455-0.22c-0.033-0.911-0.021-1.824-0.021-2.804
	c0.212,0.092,0.289,0.102,0.298,0.132c0.46,1.528,1.642,2.203,2.971,2.925c1.426,0.775,4.202-0.608,4.476-2.089
	c0.193-1.047-0.589-2.421-1.85-3.173c-1.485-0.887-3.004-1.729-4.417-2.721c-2.424-1.699-2.227-5.068,0.403-6.393
	c1.315-0.662,2.822-0.514,4.172-0.012C63.153,30.013,63.811,30.277,64.661,29.727z"/>
<path fill-rule="evenodd" clip-rule="evenodd" d="M109.098,43.896c0-0.876,0-1.882,0-2.969c0.372,0.585,0.647,1.178,1.064,1.644
	c0.981,1.097,2.215,1.834,3.713,1.765c1.216-0.056,2.205-0.724,2.831-1.793c0.535-0.913,0.219-2.233-0.792-2.986
	c-1.033-0.769-2.169-1.396-3.259-2.088c-1.214-0.77-2.578-1.35-3.297-2.729c-0.835-1.6-0.462-3.339,0.921-4.48
	c1.57-1.294,3.311-0.977,5.018-0.511c0.67,0.183,1.243,0.702,2.054-0.222c0,1.296,0,2.285,0,3.273
	c-0.067,0.017-0.135,0.034-0.202,0.051c-0.102-0.241-0.211-0.479-0.305-0.725c-0.828-2.169-4.185-2.999-5.814-1.434
	c-1.014,0.973-1.133,2.229-0.06,3.123c1.142,0.951,2.471,1.676,3.726,2.489c0.802,0.52,1.682,0.941,2.414,1.545
	c1.013,0.835,1.542,2.001,1.34,3.32c-0.23,1.5-1.078,2.572-2.524,3.201c-1.529,0.666-2.97,0.321-4.456-0.089
	C110.752,44.083,109.994,44.035,109.098,43.896z"/>
<path fill-rule="evenodd" clip-rule="evenodd" d="M234.153,45.352c-0.394,0-0.909,0-1.579,0c0.991-1.572,0.592-3.188,0.639-4.748
	c0.055-1.847-0.03-3.698,0.055-5.543c0.062-1.354,0.007-2.571-1.506-3.146c0.669-0.6,2.085-0.484,2.617,0.171
	c2.008,2.477,4.004,4.963,6.006,7.447c0.472,0.585,0.927,1.186,1.421,1.75c0.15,0.171,0.407,0.246,0.615,0.366
	c0.129-0.237,0.358-0.468,0.371-0.71c0.046-0.855,0.021-1.715,0.016-2.572c-0.012-1.483-0.002-2.968-0.056-4.45
	c-0.026-0.706-0.177-1.407-0.288-2.233c0.386,0,0.89,0,1.603,0c-0.99,1.146-0.757,2.345-0.759,3.497
	c-0.006,3.096,0.015,6.191,0.013,9.287c-0.001,0.254-0.1,0.509-0.204,1.01c-0.642-0.819-1.12-1.443-1.612-2.059
	c-2.121-2.652-4.247-5.304-6.37-7.954c-0.017-0.021-0.03-0.045-0.051-0.059c-0.324-0.223-0.648-0.443-0.974-0.664
	c-0.117,0.399-0.332,0.798-0.335,1.198c-0.021,2.316-0.021,4.633,0.035,6.948C233.829,43.691,234.027,44.49,234.153,45.352z"/>
<path fill-rule="evenodd" clip-rule="evenodd" d="M52.504,31.746c-0.658-1.424-1.842-1.743-3.223-1.704
	c-0.984,0.028-1.97,0.018-2.955,0.005c-0.701-0.009-1.089,0.327-1.107,1.017c-0.04,1.508-0.063,3.017-0.06,4.525
	c0.001,0.544,0.393,0.78,0.888,0.779c1.14,0,2.289,0.05,3.415-0.086c0.594-0.071,1.146-0.489,1.774-0.776c0,0.775,0,1.582,0,2.493
	c-0.185-0.145-0.321-0.235-0.439-0.346c-0.64-0.595-1.374-0.877-2.261-0.82c-0.774,0.049-1.555,0.024-2.332,0.013
	c-0.684-0.011-1.042,0.36-1.041,0.993c0.003,1.691,0.05,3.382,0.102,5.071c0.016,0.512,0.337,0.861,0.838,0.861
	c1.678-0.001,3.385,0.118,5.023-0.155c0.792-0.133,1.456-1.039,2.127-1.557c0.196,1.271-0.726,2.331-2.087,2.314
	c-2.436-0.029-4.872-0.017-7.308-0.033c-0.336-0.002-0.672-0.074-1.261-0.145c1.209-1.039,0.919-2.234,0.931-3.348
	c0.026-2.629,0.01-5.258,0.001-7.887c-0.004-1.103,0.218-2.268-1.014-3.196c0.446-0.083,0.656-0.154,0.866-0.156
	c2.59-0.021,5.181-0.028,7.772-0.046C52.536,29.555,53.02,30.285,52.504,31.746z"/>
<path fill-rule="evenodd" clip-rule="evenodd" d="M247.878,31.728c-0.006,0.008,0.008-0.032,0.022-0.033
	c2.33-0.094,4.697-0.596,6.921,0.569c1.341,0.702,2.059,2.455,1.673,4.021c-0.355,1.443-1.784,2.636-3.197,2.645
	c-0.259,0.002-0.519-0.076-0.646-0.098c0.62-0.729,1.359-1.356,1.786-2.154c0.639-1.194,0.228-2.399-0.503-3.447
	c-0.749-1.074-1.846-1.349-3.095-1.167c-0.75,0.109-0.968,0.603-0.967,1.275c0.002,1.276-0.146,2.574,0.04,3.822
	c0.265,1.772-0.23,3.51-0.031,5.261c0.108,0.954,0.234,1.907,0.359,2.929c-0.645,0-1.501,0-2.26,0
	c0.74-3.992,0.222-8.04,0.323-12.065C248.317,32.776,248.031,32.262,247.878,31.728z"/>
<path fill-rule="evenodd" clip-rule="evenodd" d="M192.92,45.389c-0.555,0-1.184,0-1.663,0c0.932-2,1.899-4.011,2.805-6.049
	c0.565-1.274,1.025-2.596,1.555-3.888c0.479-1.169,0.979-2.329,1.491-3.483c0.062-0.138,0.303-0.33,0.386-0.298
	c0.191,0.072,0.413,0.235,0.487,0.417c0.504,1.223,0.953,2.469,1.455,3.693c0.815,1.991,1.633,3.982,2.498,5.952
	c0.535,1.218,1.16,2.396,1.758,3.621c-0.848,0-1.82,0-3.007,0c0.811-1.422-0.045-2.521-0.442-3.702
	c-0.249-0.745-0.734-1.035-1.542-0.981c-1.136,0.075-2.29,0.133-3.414,0.004c-0.935-0.106-1.348,0.367-1.686,1.043
	c-0.266,0.53-0.55,1.081-0.655,1.654C192.833,43.979,192.92,44.625,192.92,45.389z M194.694,39.157
	c-0.01,0.908,0.219,1.162,0.913,1.174c0.851,0.016,1.702,0.001,2.555,0.001c1.079-0.001,1.369-0.465,0.939-1.485
	c-0.472-1.119-0.914-2.251-1.406-3.361c-0.131-0.295-0.377-0.73-0.602-0.751c-0.492-0.044-0.819,0.301-0.94,0.84
	c-0.094,0.421-0.289,0.821-0.457,1.223C195.342,37.649,194.976,38.497,194.694,39.157z"/>
<path fill-rule="evenodd" clip-rule="evenodd" d="M227.533,37.042c0,0.718,0,1.403,0,2.172c-0.583-0.322-1.065-0.762-1.604-0.851
	c-1.032-0.17-2.1-0.209-3.147-0.166c-0.598,0.023-0.934,0.526-0.936,1.156c-0.006,1.404-0.021,2.811,0.016,4.214
	c0.025,0.976,0.662,1.558,1.646,1.577c0.726,0.015,1.452-0.013,2.176,0.011c1.194,0.039,2.161-0.409,2.943-1.3
	c0.079-0.09,0.204-0.14,0.309-0.209c0.516,0.905-0.065,1.809-1.165,1.813c-2.099,0.007-4.195-0.022-6.294-0.035
	c-0.555-0.004-1.108-0.001-1.868-0.001c1.245-1.727,0.744-3.512,0.805-5.218c0.066-1.923,0.018-3.85,0.014-5.775
	c-0.001-0.905,0.106-1.839-0.841-2.659c0.482-0.096,0.76-0.197,1.038-0.2c2.355-0.025,4.712-0.038,7.069-0.043
	c0.933-0.002,1.213,0.416,1.037,1.566c-0.122-0.074-0.252-0.115-0.326-0.202c-0.933-1.111-2.22-0.917-3.444-0.947
	c-0.569-0.014-1.138-0.002-1.706-0.026c-0.992-0.041-1.403,0.316-1.411,1.286c-0.011,1.197,0.013,2.394-0.012,3.59
	c-0.012,0.611,0.278,0.986,0.841,1.004c1.137,0.036,2.281,0.045,3.41-0.064C226.552,37.689,226.99,37.313,227.533,37.042z"/>
<path fill-rule="evenodd" clip-rule="evenodd" d="M203.923,31.647c1.002,0,2.055,0,3.274,0c-0.927,1.188-0.361,2.155,0.076,3.157
	c0.975,2.233,1.906,4.484,2.874,6.721c0.122,0.284,0.352,0.521,0.532,0.78c0.304-0.256,0.725-0.452,0.889-0.778
	c0.343-0.688,0.531-1.452,0.817-2.172c0.587-1.482,1.207-2.953,1.793-4.436c0.238-0.602,0.535-1.21,0.6-1.837
	c0.044-0.42-0.272-0.877-0.463-1.413c0.675,0,1.403,0,2.252,0c-0.367,0.5-0.744,0.866-0.943,1.311
	c-0.723,1.622-1.389,3.271-2.071,4.91c-0.771,1.854-1.54,3.707-2.3,5.564c-0.177,0.432-0.277,0.896-0.479,1.313
	c-0.111,0.232-0.357,0.399-0.543,0.597c-0.149-0.188-0.35-0.353-0.44-0.564c-1.063-2.475-2.109-4.955-3.16-7.436
	c-0.475-1.12-0.92-2.256-1.433-3.358C204.834,33.225,204.38,32.485,203.923,31.647z"/>
<path fill-rule="evenodd" clip-rule="evenodd" d="M293.273,45.382c-0.883,0-1.747,0-2.761,0c1.06-1.379,0.684-2.893,0.707-4.341
	c0.042-2.525,0.019-5.052,0.019-7.578c0-1.214-0.199-1.411-1.39-1.428c-1.235-0.018-2.484-0.086-3.142,1.392
	c-0.595-1.315-0.272-1.889,0.9-1.89c2.903-0.004,5.808,0.004,8.711-0.002c1.271-0.002,1.564,0.412,1.127,1.878
	c-0.854-1.412-2.161-1.45-3.507-1.378c-0.856,0.046-1.147,0.293-1.15,1.13c-0.012,3.463-0.02,6.927,0.025,10.389
	C292.82,44.129,293.093,44.699,293.273,45.382z"/>
<path fill-rule="evenodd" clip-rule="evenodd" d="M72.368,44.226c-1.008,0-2.016,0-3.275,0c1.013-0.926,0.897-1.94,0.895-2.911
	c-0.008-3.198-0.047-6.397-0.066-9.595c-0.005-0.752-0.063-1.466-0.822-2.007c1.106,0,2.212,0,3.318,0
	c-0.95,0.923-0.741,2.056-0.744,3.129c-0.007,2.913-0.015,5.826,0.005,8.739c0.006,0.881-0.265,1.866,0.875,2.433
	C72.491,44.083,72.429,44.154,72.368,44.226z"/>
<path fill-rule="evenodd" clip-rule="evenodd" d="M264.497,45.446c-1.201,0.388-2.08-0.163-2.874-0.684
	c-4.111-2.698-4.197-9.436-0.352-12.243c0.643-0.47,1.29-1.157,2.441-0.826c-0.448,0.289-0.805,0.462-1.092,0.713
	c-1.129,0.99-1.97,2.182-2.007,3.734c-0.043,1.705-0.101,3.433,0.11,5.117C260.97,43.223,262.087,44.321,264.497,45.446z"/>
<path fill-rule="evenodd" clip-rule="evenodd" d="M266.575,31.39c0.52,0.164,1.094,0.233,1.549,0.506
	c2.926,1.759,3.844,4.441,3.481,7.727c-0.307,2.782-1.842,4.613-4.283,5.751c-0.425,0.198-0.968,0.146-1.562,0.223
	c0.906-0.604,1.73-1.027,2.4-1.625c1.055-0.942,1.459-2.22,1.546-3.625c0.13-2.059,0.221-4.095-0.642-6.056
	c-0.452-1.029-1.151-1.76-2.13-2.261c-0.172-0.088-0.321-0.219-0.481-0.33C266.495,31.597,266.535,31.493,266.575,31.39z"/>
<path fill-rule="evenodd" clip-rule="evenodd" d="M88.401,29.943c0.043,0.959,0.083,1.828,0.121,2.697
	c-0.066,0.001-0.132,0.003-0.198,0.004c-0.518-0.616-0.963-1.321-1.573-1.823c-0.591-0.486-1.351-0.764-2.05-1.28
	c0.463,0.073,0.96,0.061,1.383,0.234C87.214,30.235,87.22,30.269,88.401,29.943z"/>
<path fill-rule="evenodd" clip-rule="evenodd" fill="#FFFFFF" d="M17.099,29.521c0-3.931,0.02-7.862-0.015-11.793
	c-0.008-0.844,0.258-1.262,1.097-1.479c5.929-1.533,11.593,0.622,14.41,6.014c0.97,1.858,1.428,3.89,1.505,6
	c0.08,2.195,0.024,4.374-0.678,6.484c-0.989,2.967-2.757,5.317-5.448,6.939c-3.044,1.833-6.33,1.709-9.651,1.176
	c-1.05-0.168-1.212-0.457-1.213-1.547c-0.001-3.932,0-7.863,0-11.794C17.103,29.521,17.101,29.521,17.099,29.521z"/>
<path fill-rule="evenodd" clip-rule="evenodd" fill="#FFFFFF" d="M167.895,31.471c0-3.541-0.002-7.081,0.001-10.622
	c0-1.492,0.037-1.561,1.476-1.886c3.331-0.753,6.501-0.41,9.369,1.566c2.045,1.409,3.408,3.337,4.22,5.707
	c1.036,3.032,1.078,6.148,0.381,9.169c-1.417,6.147-6.627,9.93-13.156,8.723c-2.453-0.453-2.288-0.099-2.288-2.815
	c0-3.28,0-6.561,0-9.841C167.896,31.471,167.896,31.471,167.895,31.471z"/>
<path fill-rule="evenodd" clip-rule="evenodd" fill="#FFFFFF" d="M194.694,39.157c0.281-0.66,0.647-1.508,1.002-2.36
	c0.168-0.401,0.363-0.802,0.457-1.223c0.121-0.539,0.448-0.884,0.94-0.84c0.225,0.021,0.471,0.456,0.602,0.751
	c0.492,1.11,0.935,2.242,1.406,3.361c0.43,1.021,0.14,1.484-0.939,1.485c-0.853,0-1.704,0.015-2.555-0.001
	C194.913,40.319,194.685,40.065,194.694,39.157z"/>
</svg>
